<?xml version="1.0" encoding="UTF-8" standalone="no"?>
<svg
   xmlns:dc="http://purl.org/dc/elements/1.1/"
   xmlns:cc="http://creativecommons.org/ns#"
   xmlns:rdf="http://www.w3.org/1999/02/22-rdf-syntax-ns#"
   xmlns:svg="http://www.w3.org/2000/svg"
   xmlns="http://www.w3.org/2000/svg"
   xmlns:sodipodi="http://sodipodi.sourceforge.net/DTD/sodipodi-0.dtd"
   xmlns:inkscape="http://www.inkscape.org/namespaces/inkscape"
   width="79.375mm"
   height="11.953443mm"
   viewBox="0 0 79.375 11.953443"
   version="1.1"
   id="svg3130"
   inkscape:version="1.0.2 (1.0.2+r75+1)"
   sodipodi:docname="logo.inkscape.svg"
   inkscape:export-filename="/home/adi/DICE/git/embeddings.cc/docs/images/logo.png"
   inkscape:export-xdpi="96"
   inkscape:export-ydpi="96">
  <defs
     id="defs3124" />
  <sodipodi:namedview
     id="base"
     pagecolor="#ffffff"
     bordercolor="#666666"
     borderopacity="1.0"
     inkscape:pageopacity="0.0"
     inkscape:pageshadow="2"
     inkscape:zoom="2.8"
     inkscape:cx="90.914339"
     inkscape:cy="48.333848"
     inkscape:document-units="mm"
     inkscape:current-layer="layer1"
     inkscape:document-rotation="0"
     showgrid="false"
     fit-margin-top="0"
     fit-margin-left="0"
     fit-margin-right="0"
     fit-margin-bottom="0"
     inkscape:showpageshadow="false"
     inkscape:pagecheckerboard="true"
     inkscape:snap-bbox="true"
     inkscape:snap-page="true"
     inkscape:bbox-paths="true"
     inkscape:bbox-nodes="true"
     inkscape:snap-bbox-edge-midpoints="true"
     inkscape:snap-bbox-midpoints="true"
     inkscape:window-width="1920"
     inkscape:window-height="1116"
     inkscape:window-x="0"
     inkscape:window-y="28"
     inkscape:window-maximized="1" />
  <metadata
     id="metadata3127">
    <rdf:RDF>
      <cc:Work
         rdf:about="">
        <dc:format>image/svg+xml</dc:format>
        <dc:type
           rdf:resource="http://purl.org/dc/dcmitype/StillImage" />
        <dc:title></dc:title>
      </cc:Work>
    </rdf:RDF>
  </metadata>
  <g
     inkscape:label="Ebene 1"
     inkscape:groupmode="layer"
     id="layer1"
     transform="translate(-55.06006,-35.56593)">
    <rect
       style="fill:#ffffff;fill-rule:evenodd;stroke-width:2.192;paint-order:fill markers stroke;stop-color:#000000"
       id="rect3777"
       width="79.374992"
       height="11.953421"
       x="55.060066"
       y="35.565929" />
    <g
       aria-label="embeddings.cc"
       id="text1141"
       style="font-style:normal;font-weight:normal;font-size:9.29636px;line-height:1.25;font-family:sans-serif;letter-spacing:0px;word-spacing:0px;fill:#000000;fill-opacity:1;stroke:none;stroke-width:0.23241"
       transform="matrix(1.1372339,0,0,1.1372339,29.240479,-167.41871)">
      <path
         d="m 37.011304,186.71041 q -0.989553,0 -1.543341,-0.5901 -0.553787,-0.5901 -0.553787,-1.68859 v -0.39038 q 0,-1.16204 0.508395,-1.793 0.508395,-0.63095 1.457096,-0.63095 0.926004,0 1.393546,0.59464 0.467541,0.5901 0.47662,1.75214 v 0.63096 h -2.555591 q 0.02723,0.54471 0.240579,0.7989 0.213344,0.24966 0.65819,0.24966 0.644572,0 1.075799,-0.4403 l 0.503856,0.77621 q -0.236041,0.32682 -0.685425,0.53109 -0.449385,0.19972 -0.975937,0.19972 z m -0.807984,-3.01405 h 1.284605 v -0.11802 q -0.0091,-0.44031 -0.145256,-0.66727 -0.136177,-0.22696 -0.472081,-0.22696 -0.335904,0 -0.490238,0.24058 -0.149794,0.24058 -0.17703,0.77167 z"
         style="font-style:normal;font-variant:normal;font-weight:bold;font-stretch:normal;font-family:'Roboto Condensed';-inkscape-font-specification:'Roboto Condensed,  Bold';stroke-width:0.23241"
         id="path1168" />
      <path
         d="m 40.683548,181.70817 0.03631,0.45393 q 0.431228,-0.54471 1.139349,-0.54471 0.735356,0 1.039485,0.66273 0.42215,-0.66273 1.202899,-0.66273 1.289143,0 1.320918,1.78392 v 3.21832 h -1.284604 v -3.13661 q 0,-0.42669 -0.118021,-0.60826 -0.11802,-0.18157 -0.399453,-0.18157 -0.358599,0 -0.53563,0.4403 l 0.0091,0.15434 v 3.3318 h -1.284605 v -3.12754 q 0,-0.42215 -0.113481,-0.60825 -0.113481,-0.19065 -0.403992,-0.19065 -0.331364,0 -0.526552,0.3586 v 3.56784 H 39.48065 v -4.91146 z"
         style="font-style:normal;font-variant:normal;font-weight:bold;font-stretch:normal;font-family:'Roboto Condensed';-inkscape-font-specification:'Roboto Condensed,  Bold';stroke-width:0.23241"
         id="path1170" />
      <path
         d="m 50.206869,184.32277 q 0,1.19382 -0.381296,1.793 -0.381296,0.59464 -1.198359,0.59464 -0.640032,0 -1.025867,-0.57648 l -0.04085,0.4857 h -1.184741 v -6.97227 h 1.284605 v 2.46027 q 0.363139,-0.49024 0.957779,-0.49024 0.817063,0 1.198359,0.59464 0.381296,0.5901 0.390374,1.73399 z m -1.284604,-0.32228 q 0,-0.77621 -0.149795,-1.03949 -0.149795,-0.26781 -0.522012,-0.26781 -0.403992,0 -0.590101,0.36768 v 2.23784 q 0.172491,0.34498 0.599179,0.34498 0.367678,0 0.508395,-0.24058 0.145256,-0.24058 0.154334,-0.93508 z"
         style="font-style:normal;font-variant:normal;font-weight:bold;font-stretch:normal;font-family:'Roboto Condensed';-inkscape-font-specification:'Roboto Condensed,  Bold';stroke-width:0.23241"
         id="path1172" />
      <path
         d="m 52.971265,186.71041 q -0.989554,0 -1.543341,-0.5901 -0.553787,-0.5901 -0.553787,-1.68859 v -0.39038 q 0,-1.16204 0.508395,-1.793 0.508395,-0.63095 1.457096,-0.63095 0.926004,0 1.393546,0.59464 0.467541,0.5901 0.47662,1.75214 v 0.63096 h -2.555591 q 0.02723,0.54471 0.240579,0.7989 0.213344,0.24966 0.65819,0.24966 0.644572,0 1.075799,-0.4403 l 0.503856,0.77621 q -0.236041,0.32682 -0.685425,0.53109 -0.449385,0.19972 -0.975937,0.19972 z m -0.807984,-3.01405 h 1.284604 v -0.11802 q -0.0091,-0.44031 -0.145255,-0.66727 -0.136177,-0.22696 -0.472081,-0.22696 -0.335904,0 -0.490238,0.24058 -0.149795,0.24058 -0.17703,0.77167 z"
         style="font-style:normal;font-variant:normal;font-weight:bold;font-stretch:normal;font-family:'Roboto Condensed';-inkscape-font-specification:'Roboto Condensed,  Bold';stroke-width:0.23241"
         id="path1174" />
      <path
         d="m 55.263581,184.01411 q 0,-1.20744 0.408532,-1.80208 0.408531,-0.59464 1.18928,-0.59464 0.567405,0 0.944162,0.49024 v -2.46027 h 1.293682 v 6.97227 h -1.166584 l -0.05901,-0.49932 q -0.394914,0.5901 -1.016789,0.5901 -0.771671,0 -1.180202,-0.5901 -0.403992,-0.5901 -0.413071,-1.73399 z m 1.289144,0.32228 q 0,0.72628 0.154334,1.01679 0.154334,0.28597 0.522012,0.28597 0.381296,0 0.576484,-0.34044 v -2.24238 q -0.190648,-0.36314 -0.571944,-0.36314 -0.354061,0 -0.517474,0.28597 -0.163412,0.28597 -0.163412,1.01679 z"
         style="font-style:normal;font-variant:normal;font-weight:bold;font-stretch:normal;font-family:'Roboto Condensed';-inkscape-font-specification:'Roboto Condensed,  Bold';stroke-width:0.23241"
         id="path1176" />
      <path
         d="m 59.875447,184.01411 q 0,-1.20744 0.408532,-1.80208 0.408531,-0.59464 1.18928,-0.59464 0.567405,0 0.944162,0.49024 v -2.46027 h 1.293682 v 6.97227 h -1.166584 l -0.05901,-0.49932 q -0.394914,0.5901 -1.016789,0.5901 -0.771671,0 -1.180202,-0.5901 -0.403992,-0.5901 -0.413071,-1.73399 z m 1.289144,0.32228 q 0,0.72628 0.154334,1.01679 0.154334,0.28597 0.522012,0.28597 0.381296,0 0.576484,-0.34044 v -2.24238 q -0.190648,-0.36314 -0.571944,-0.36314 -0.354061,0 -0.517474,0.28597 -0.163412,0.28597 -0.163412,1.01679 z"
         style="font-style:normal;font-variant:normal;font-weight:bold;font-stretch:normal;font-family:'Roboto Condensed';-inkscape-font-specification:'Roboto Condensed,  Bold';stroke-width:0.23241"
         id="path1178" />
      <path
         d="m 66.007958,186.61963 h -1.289144 v -4.91146 h 1.289144 z m -1.348154,-6.18244 q 0,-0.29959 0.190648,-0.49024 0.190648,-0.19065 0.508395,-0.19065 0.317747,0 0.508395,0.19065 0.190648,0.19065 0.190648,0.49024 0,0.29505 -0.190648,0.49023 -0.186109,0.19519 -0.508395,0.19519 -0.322286,0 -0.512934,-0.19519 -0.186109,-0.19518 -0.186109,-0.49023 z"
         style="font-style:normal;font-variant:normal;font-weight:bold;font-stretch:normal;font-family:'Roboto Condensed';-inkscape-font-specification:'Roboto Condensed,  Bold';stroke-width:0.23241"
         id="path1180" />
      <path
         d="m 68.177714,181.70817 0.03631,0.4857 q 0.435767,-0.57648 1.139349,-0.57648 1.266447,0 1.302761,1.77484 v 3.2274 H 69.36699 v -3.13208 q 0,-0.41761 -0.127098,-0.60371 -0.12256,-0.19065 -0.435767,-0.19065 -0.349522,0 -0.544709,0.3586 v 3.56784 h -1.289143 v -4.91146 z"
         style="font-style:normal;font-variant:normal;font-weight:bold;font-stretch:normal;font-family:'Roboto Condensed';-inkscape-font-specification:'Roboto Condensed,  Bold';stroke-width:0.23241"
         id="path1182" />
      <path
         d="m 71.423269,184.01411 q 0,-1.20744 0.435767,-1.80208 0.435767,-0.59464 1.221055,-0.59464 0.667268,0 1.030407,0.52655 l 0.04993,-0.43577 h 1.157506 v 4.91146 q 0,0.93962 -0.526552,1.4344 -0.526552,0.49931 -1.511566,0.49931 -0.403993,0 -0.848838,-0.16341 -0.444845,-0.15887 -0.662729,-0.40853 l 0.431228,-0.88969 q 0.181569,0.19065 0.472081,0.30867 0.290511,0.12256 0.549247,0.12256 0.431228,0 0.617337,-0.20881 0.190648,-0.20426 0.195187,-0.66273 v -0.42215 q -0.367678,0.48116 -0.957779,0.48116 -0.785288,0 -1.216516,-0.60825 -0.426688,-0.6128 -0.435767,-1.72491 z m 1.284605,0.32228 q 0,0.68089 0.17703,0.9941 0.17703,0.30866 0.562865,0.30866 0.394914,0 0.585562,-0.28597 v -2.34678 q -0.199726,-0.31321 -0.576483,-0.31321 -0.381296,0 -0.567405,0.31321 -0.181569,0.3132 -0.181569,1.00771 z"
         style="font-style:normal;font-variant:normal;font-weight:bold;font-stretch:normal;font-family:'Roboto Condensed';-inkscape-font-specification:'Roboto Condensed,  Bold';stroke-width:0.23241"
         id="path1184" />
      <path
         d="m 78.436392,185.30325 q 0,-0.16341 -0.158873,-0.29959 -0.154334,-0.14072 -0.694503,-0.37676 -0.794367,-0.32228 -1.093957,-0.66726 -0.29505,-0.34499 -0.29505,-0.85792 0,-0.64457 0.463002,-1.06218 0.467541,-0.42215 1.234673,-0.42215 0.807984,0 1.293683,0.41761 0.485698,0.41761 0.485698,1.12119 h -1.284604 q 0,-0.59918 -0.499316,-0.59918 -0.204266,0 -0.335904,0.1271 -0.131638,0.1271 -0.131638,0.35406 0,0.16341 0.145256,0.29051 0.145255,0.12256 0.685425,0.35406 0.785288,0.29051 1.107574,0.64911 0.326825,0.35406 0.326825,0.92147 0,0.65819 -0.494777,1.05764 -0.494777,0.39945 -1.298222,0.39945 -0.54017,0 -0.95324,-0.2088 -0.413071,-0.21335 -0.649111,-0.5901 -0.231502,-0.37676 -0.231502,-0.81253 h 1.221056 q 0.0091,0.33591 0.154334,0.50386 0.149795,0.16795 0.485698,0.16795 0.517473,0 0.517473,-0.46754 z"
         style="font-style:normal;font-variant:normal;font-weight:bold;font-stretch:normal;font-family:'Roboto Condensed';-inkscape-font-specification:'Roboto Condensed,  Bold';stroke-width:0.23241"
         id="path1186" />
      <path
         d="m 80.597071,185.96598 q 0,-0.30867 0.204266,-0.5084 0.208805,-0.19972 0.54017,-0.19972 0.322285,0 0.53563,0.19972 0.213344,0.19519 0.213344,0.5084 0,0.31775 -0.217884,0.51293 -0.213344,0.19065 -0.53109,0.19065 -0.322286,0 -0.535631,-0.19519 -0.208805,-0.19518 -0.208805,-0.50839 z"
         style="font-style:normal;font-variant:normal;font-weight:bold;font-stretch:normal;font-family:'Roboto Condensed';-inkscape-font-specification:'Roboto Condensed,  Bold';stroke-width:0.23241"
         id="path1188" />
      <path
         d="m 84.972894,185.64369 q 0.558327,0 0.567405,-0.72628 h 1.207438 q -0.0091,0.80345 -0.494777,1.29823 -0.485699,0.49477 -1.25283,0.49477 -0.948701,0 -1.448017,-0.5901 -0.499316,-0.5901 -0.508395,-1.73853 v -0.39037 q 0,-1.15751 0.490238,-1.76576 0.494777,-0.60826 1.457095,-0.60826 0.812524,0 1.280066,0.50385 0.467541,0.49932 0.47662,1.42079 h -1.207438 q -0.0045,-0.41308 -0.136177,-0.6355 -0.131638,-0.22242 -0.435767,-0.22242 -0.335903,0 -0.481159,0.24058 -0.145256,0.23604 -0.154334,0.92146 v 0.49932 q 0,0.59918 0.05901,0.83976 0.05901,0.23604 0.195187,0.34952 0.136177,0.10894 0.385835,0.10894 z"
         style="font-style:normal;font-variant:normal;font-weight:bold;font-stretch:normal;font-family:'Roboto Condensed';-inkscape-font-specification:'Roboto Condensed,  Bold';stroke-width:0.23241"
         id="path1190" />
      <path
         d="m 89.257936,185.64369 q 0.558327,0 0.567405,-0.72628 h 1.207437 q -0.0091,0.80345 -0.494777,1.29823 -0.485698,0.49477 -1.252829,0.49477 -0.948701,0 -1.448017,-0.5901 -0.499317,-0.5901 -0.508395,-1.73853 v -0.39037 q 0,-1.15751 0.490238,-1.76576 0.494777,-0.60826 1.457095,-0.60826 0.812524,0 1.280065,0.50385 0.467542,0.49932 0.47662,1.42079 h -1.207437 q -0.0045,-0.41308 -0.136177,-0.6355 -0.131638,-0.22242 -0.435767,-0.22242 -0.335904,0 -0.481159,0.24058 -0.145256,0.23604 -0.154334,0.92146 v 0.49932 q 0,0.59918 0.05901,0.83976 0.05901,0.23604 0.195187,0.34952 0.136177,0.10894 0.385835,0.10894 z"
         style="font-style:normal;font-variant:normal;font-weight:bold;font-stretch:normal;font-family:'Roboto Condensed';-inkscape-font-specification:'Roboto Condensed,  Bold';stroke-width:0.23241"
         id="path1192" />
    </g>
    <g
       id="g1205"
       transform="matrix(1.1372339,0,0,1.1372339,29.240479,-167.41871)">
      <path
         id="rect1143"
         style="fill:#ffffff;fill-opacity:1;fill-rule:evenodd;stroke:none;stroke-width:1.23204;paint-order:fill markers stroke;stop-color:#000000"
         d="m 22.703848,179.64735 h 10.510954 v 8.20103 H 22.703848 Z" />
      <path
         d="m 28.163439,186.64432 q -1.12654,0 -1.75699,-0.67179 -0.630451,-0.67179 -0.630451,-1.92236 v -0.44441 q 0,-1.32292 0.578774,-2.04122 0.578774,-0.7183 1.658807,-0.7183 1.0542,0 1.58646,0.67696 0.53227,0.67179 0.5426,1.99471 v 0.7183 h -2.90937 q 0.03101,0.62011 0.273884,0.9095 0.242876,0.28422 0.749306,0.28422 0.7338,0 1.22473,-0.50126 l 0.5736,0.88366 q -0.26871,0.37207 -0.78031,0.60461 -0.51159,0.22738 -1.11104,0.22738 z m -0.919835,-3.4313 h 1.462435 v -0.13436 q -0.0103,-0.50126 -0.16536,-0.75964 -0.15503,-0.25838 -0.53743,-0.25838 -0.38241,0 -0.558107,0.27388 -0.170532,0.27388 -0.201538,0.8785 z"
         style="font-style:normal;font-variant:normal;font-weight:bold;font-stretch:normal;font-size:10.5833px;line-height:1.25;font-family:'Roboto Condensed';-inkscape-font-specification:'Roboto Condensed, Bold';letter-spacing:0px;word-spacing:0px;fill:#000000;fill-opacity:1;stroke:none;stroke-width:0.264583"
         id="path1145" />
      <g
         aria-label="["
         id="g1149"
         style="font-style:normal;font-weight:normal;font-size:10.5833px;line-height:1.25;font-family:sans-serif;letter-spacing:0px;word-spacing:0px;fill:#a93983;fill-opacity:1;stroke:none;stroke-width:0.264583"
         transform="translate(-3.0954574,126.96908)"
         inkscape:export-xdpi="149.82462"
         inkscape:export-ydpi="149.82462">
        <path
           d="m 27.809507,52.678279 h -0.5426 v 8.201023 h 0.5426 v 1.152381 H 25.799301 V 51.52073 h 2.010206 z"
           style="font-style:normal;font-variant:normal;font-weight:bold;font-stretch:normal;font-family:'Roboto Condensed';-inkscape-font-specification:'Roboto Condensed, Bold';fill:#a93983;fill-opacity:1;stroke-width:0.264583"
           id="path1147" />
      </g>
      <g
         aria-label="["
         id="g1153"
         style="font-style:normal;font-weight:normal;font-size:10.5833px;line-height:1.25;font-family:sans-serif;letter-spacing:0px;word-spacing:0px;fill:#a93983;fill-opacity:1;stroke:none;stroke-width:0.264583"
         transform="matrix(-1,0,0,1,59.014099,126.96908)"
         inkscape:export-xdpi="149.82462"
         inkscape:export-ydpi="149.82462">
        <path
           d="m 27.809507,52.678279 h -0.5426 v 8.201023 h 0.5426 v 1.152381 H 25.799301 V 51.52073 h 2.010206 z"
           style="font-style:normal;font-variant:normal;font-weight:bold;font-stretch:normal;font-family:'Roboto Condensed';-inkscape-font-specification:'Roboto Condensed, Bold';fill:#a93983;fill-opacity:1;stroke-width:0.264583"
           id="path1151" />
      </g>
      <path
         id="rect1155"
         style="fill:#a93983;fill-opacity:1;fill-rule:evenodd;stroke:none;stroke-width:2.40698;paint-order:fill markers stroke;stop-color:#000000"
         d="m 22.703848,178.48979 h 2.5 v 1.15755 h -2.5 z" />
      <path
         id="rect1157"
         style="fill:#a93983;fill-opacity:1;fill-rule:evenodd;stroke:none;stroke-width:2.40698;paint-order:fill markers stroke;stop-color:#000000"
         d="m 22.703848,187.8432 h 2.5 v 1.15755 h -2.5 z" />
      <path
         id="rect1159"
         style="fill:#a93983;fill-opacity:1;fill-rule:evenodd;stroke:none;stroke-width:2.40698;paint-order:fill markers stroke;stop-color:#000000"
         d="m 30.714804,187.84322 h 2.5 v 1.15755 h -2.5 z" />
      <path
         id="rect1161"
         style="fill:#a93983;fill-opacity:1;fill-rule:evenodd;stroke:none;stroke-width:2.40698;paint-order:fill markers stroke;stop-color:#000000"
         d="m 30.714804,178.48981 h 2.5 v 1.15755 h -2.5 z" />
    </g>
  </g>
</svg>
