<?xml version="1.0" encoding="UTF-8"?><svg xmlns="http://www.w3.org/2000/svg" xmlns:xlink="http://www.w3.org/1999/xlink" fill-opacity="1" color-rendering="auto" color-interpolation="auto" text-rendering="auto" stroke="black" stroke-linecap="square" width="1001" stroke-miterlimit="10" shape-rendering="auto" stroke-opacity="1" fill="black" stroke-dasharray="none" font-weight="normal" stroke-width="1" height="374" font-family="'Dialog'" font-style="normal" stroke-linejoin="miter" font-size="12px" stroke-dashoffset="0" image-rendering="auto">
  <!--Generated by ySVG 2.5-->
  <defs id="genericDefs"/>
  <g>
    <defs id="defs1">
      <clipPath clipPathUnits="userSpaceOnUse" id="clipPath1">
        <path d="M0 0 L1001 0 L1001 374 L0 374 L0 0 Z"/>
      </clipPath>
      <clipPath clipPathUnits="userSpaceOnUse" id="clipPath2">
        <path d="M135 171 L1136 171 L1136 545 L135 545 L135 171 Z"/>
      </clipPath>
    </defs>
    <g fill="white" text-rendering="geometricPrecision" shape-rendering="geometricPrecision" transform="translate(-135,-171)" stroke="white">
      <rect x="135" width="1001" height="374" y="171" clip-path="url(#clipPath2)" stroke="none"/>
    </g>
    <g text-rendering="geometricPrecision" stroke-miterlimit="1.45" shape-rendering="geometricPrecision" transform="matrix(1,0,0,1,-135,-171)" stroke-linecap="butt">
      <path fill="none" d="M1051.3125 275.1646 L1051.3125 288.7792" clip-path="url(#clipPath2)"/>
      <path d="M1051.3125 299.7792 L1057.3125 287.7792 L1045.3125 287.7792 Z" clip-path="url(#clipPath2)" stroke="none"/>
      <path fill="none" d="M1051.3125 362.7772 L1051.3125 349.212" clip-path="url(#clipPath2)"/>
      <path d="M1051.3125 338.212 L1045.3125 350.212 L1057.3125 350.212 Z" clip-path="url(#clipPath2)" stroke="none"/>
      <path fill="none" d="M719.0263 256 L957.6871 256" clip-path="url(#clipPath2)"/>
      <path d="M968.6871 256 L956.6871 250 L956.6871 262 Z" clip-path="url(#clipPath2)" stroke="none"/>
      <path fill="none" d="M1051.3125 425.8354 L1051.3125 412.2208" clip-path="url(#clipPath2)"/>
      <path d="M1051.3125 401.2208 L1045.3125 413.2208 L1057.3125 413.2208 Z" clip-path="url(#clipPath2)" stroke="none"/>
      <path fill="none" d="M896.853 401.1646 L934.3333 445 L957.6902 445" clip-path="url(#clipPath2)"/>
      <path d="M968.6902 445 L956.6902 439 L956.6902 451 Z" clip-path="url(#clipPath2)" stroke="none"/>
      <path fill="none" d="M713.9123 382 L805.7483 382" clip-path="url(#clipPath2)"/>
      <path d="M816.7483 382 L804.7483 376 L804.7483 388 Z" clip-path="url(#clipPath2)" stroke="none"/>
      <text x="725.8823" font-size="20px" y="406.3274" clip-path="url(#clipPath2)" font-family="'Roboto Condensed'" stroke="none" xml:space="preserve">UPB cert</text>
      <path fill="none" d="M719.0679 319 L880.4668 319 L880.4668 351.8354" clip-path="url(#clipPath2)"/>
      <path d="M880.4668 362.8354 L886.4668 350.8354 L874.4668 350.8354 Z" clip-path="url(#clipPath2)" stroke="none"/>
      <path fill="none" d="M713.9057 445 L880.4668 445 L880.4668 412.1646" clip-path="url(#clipPath2)"/>
      <path d="M880.4668 401.1646 L874.4668 413.1646 L886.4668 413.1646 Z" clip-path="url(#clipPath2)" stroke="none"/>
      <text x="726.1043" font-size="20px" y="469.8154" clip-path="url(#clipPath2)" font-family="'Roboto Condensed'" stroke="none" xml:space="preserve">Let’s Encrypt cert</text>
      <path fill="none" d="M628.8749 212.1668 L629.1061 225.848" clip-path="url(#clipPath2)"/>
      <path d="M629.2921 236.8464 L635.0884 224.7467 L623.0901 224.9495 Z" clip-path="url(#clipPath2)" stroke="none"/>
      <path fill="none" stroke-dasharray="6,2" d="M351.004 319 L401.158 319" clip-path="url(#clipPath2)"/>
      <path fill="none" d="M376.2936 445.5671 L395.2552 445.6572" clip-path="url(#clipPath2)"/>
      <path d="M406.2551 445.7094 L394.2838 439.6525 L394.2267 451.6523 Z" clip-path="url(#clipPath2)" stroke="none"/>
      <text x="335.2959" font-size="20px" y="483.5186" clip-path="url(#clipPath2)" font-family="'Roboto Condensed'" stroke="none" xml:space="preserve">A-record to IP</text>
      <path fill="none" stroke-dasharray="6,2" d="M256.5901 401.1628 L256.7857 425.7784" clip-path="url(#clipPath2)"/>
      <path fill="none" stroke-dasharray="6,2" d="M743.9135 193 L713.9181 193" clip-path="url(#clipPath2)"/>
      <path fill="none" d="M506.5458 193 L532.2128 193" clip-path="url(#clipPath2)"/>
      <path d="M543.2128 193 L531.2128 187 L531.2128 199 Z" clip-path="url(#clipPath2)" stroke="none"/>
    </g>
    <g fill="rgb(219,220,219)" text-rendering="geometricPrecision" shape-rendering="geometricPrecision" transform="matrix(1,0,0,1,-135,-171)" stroke="rgb(219,220,219)">
      <rect x="968.6729" y="299.8115" clip-path="url(#clipPath2)" width="165.2793" rx="4" ry="4" height="38.377" stroke="none"/>
    </g>
    <g text-rendering="geometricPrecision" stroke-miterlimit="1.45" shape-rendering="geometricPrecision" transform="matrix(1,0,0,1,-135,-171)" stroke-linecap="butt">
      <rect x="968.6729" y="299.8115" clip-path="url(#clipPath2)" fill="none" width="165.2793" rx="4" ry="4" height="38.377"/>
      <text x="998.3291" font-size="20px" y="326.7686" clip-path="url(#clipPath2)" font-family="'Roboto Condensed'" stroke="none" xml:space="preserve">Elasticsearch</text>
    </g>
    <g fill="rgb(219,220,219)" text-rendering="geometricPrecision" shape-rendering="geometricPrecision" transform="matrix(1,0,0,1,-135,-171)" stroke="rgb(219,220,219)">
      <rect x="968.6729" y="236.8115" clip-path="url(#clipPath2)" width="165.2793" rx="4" ry="4" height="38.377" stroke="none"/>
    </g>
    <g text-rendering="geometricPrecision" stroke-miterlimit="1.45" shape-rendering="geometricPrecision" transform="matrix(1,0,0,1,-135,-171)" stroke-linecap="butt">
      <rect x="968.6729" y="236.8115" clip-path="url(#clipPath2)" fill="none" width="165.2793" rx="4" ry="4" height="38.377"/>
      <text x="983.4072" font-size="20px" y="263.7686" clip-path="url(#clipPath2)" font-family="'Roboto Condensed'" stroke="none" xml:space="preserve">webservice-index</text>
    </g>
    <g fill="rgb(219,220,219)" text-rendering="geometricPrecision" shape-rendering="geometricPrecision" transform="matrix(1,0,0,1,-135,-171)" stroke="rgb(219,220,219)">
      <rect x="968.6729" y="362.8115" clip-path="url(#clipPath2)" width="165.2793" rx="4" ry="4" height="38.377" stroke="none"/>
    </g>
    <g text-rendering="geometricPrecision" stroke-miterlimit="1.45" shape-rendering="geometricPrecision" transform="matrix(1,0,0,1,-135,-171)" stroke-linecap="butt">
      <rect x="968.6729" y="362.8115" clip-path="url(#clipPath2)" fill="none" width="165.2793" rx="4" ry="4" height="38.377"/>
      <text x="980.6729" font-size="20px" y="389.7686" clip-path="url(#clipPath2)" font-family="'Roboto Condensed'" stroke="none" xml:space="preserve">webservice-public</text>
    </g>
    <g fill="rgb(219,220,219)" text-rendering="geometricPrecision" shape-rendering="geometricPrecision" transform="matrix(1,0,0,1,-135,-171)" stroke="rgb(219,220,219)">
      <rect x="968.6729" y="425.8115" clip-path="url(#clipPath2)" width="165.2793" rx="4" ry="4" height="38.377" stroke="none"/>
    </g>
    <g text-rendering="geometricPrecision" stroke-miterlimit="1.45" shape-rendering="geometricPrecision" transform="matrix(1,0,0,1,-135,-171)" stroke-linecap="butt">
      <rect x="968.6729" y="425.8115" clip-path="url(#clipPath2)" fill="none" width="165.2793" rx="4" ry="4" height="38.377"/>
      <text x="996.6445" font-size="20px" y="452.7686" clip-path="url(#clipPath2)" font-family="'Roboto Condensed'" stroke="none" xml:space="preserve">uWSGI socket</text>
    </g>
    <g fill="rgb(219,220,219)" text-rendering="geometricPrecision" shape-rendering="geometricPrecision" transform="matrix(1,0,0,1,-135,-171)" stroke="rgb(219,220,219)">
      <rect x="816.7334" y="362.8115" clip-path="url(#clipPath2)" width="127.4668" rx="4" ry="4" height="38.377" stroke="none"/>
    </g>
    <g text-rendering="geometricPrecision" stroke-miterlimit="1.45" shape-rendering="geometricPrecision" transform="matrix(1,0,0,1,-135,-171)" stroke-linecap="butt">
      <rect x="816.7334" y="362.8115" clip-path="url(#clipPath2)" fill="none" width="127.4668" rx="4" ry="4" height="38.377"/>
      <text x="859.1826" font-size="20px" y="389.7686" clip-path="url(#clipPath2)" font-family="'Roboto Condensed'" stroke="none" xml:space="preserve">nginx</text>
    </g>
    <g fill="rgb(169,201,232)" text-rendering="geometricPrecision" shape-rendering="geometricPrecision" transform="matrix(1,0,0,1,-135,-171)" stroke="rgb(169,201,232)">
      <path d="M418.8 236.8115 L736.7125 236.8115 L701.3884 275.1885 L383.4774 275.1885 Z" fill-rule="evenodd" clip-path="url(#clipPath2)" stroke="none"/>
    </g>
    <g text-rendering="geometricPrecision" stroke-miterlimit="1.45" shape-rendering="geometricPrecision" transform="matrix(1,0,0,1,-135,-171)" stroke-linecap="butt">
      <path fill="none" d="M418.8 236.8115 L736.7125 236.8115 L701.3884 275.1885 L383.4774 275.1885 Z" fill-rule="evenodd" clip-path="url(#clipPath2)"/>
      <text x="422.8331" font-size="20px" y="263.7686" clip-path="url(#clipPath2)" font-family="'Roboto Condensed'" stroke="none" xml:space="preserve">http://embeddings.cs.upb.de:8008</text>
    </g>
    <g fill="rgb(200,226,138)" text-rendering="geometricPrecision" shape-rendering="geometricPrecision" transform="matrix(1,0,0,1,-135,-171)" stroke="rgb(200,226,138)">
      <path d="M418.8005 299.8115 L736.7104 299.8115 L701.387 338.1885 L383.4776 338.1885 Z" fill-rule="evenodd" clip-path="url(#clipPath2)" stroke="none"/>
    </g>
    <g text-rendering="geometricPrecision" stroke-miterlimit="1.45" shape-rendering="geometricPrecision" transform="matrix(1,0,0,1,-135,-171)" stroke-linecap="butt">
      <path fill="none" d="M418.8005 299.8115 L736.7104 299.8115 L701.387 338.1885 L383.4776 338.1885 Z" fill-rule="evenodd" clip-path="url(#clipPath2)"/>
      <text x="432.7061" font-size="20px" y="326.7686" clip-path="url(#clipPath2)" font-family="'Roboto Condensed'" stroke="none" xml:space="preserve">http://embeddings.cs.upb.de:80</text>
    </g>
    <g fill="rgb(200,226,138)" text-rendering="geometricPrecision" shape-rendering="geometricPrecision" transform="matrix(1,0,0,1,-135,-171)" stroke="rgb(200,226,138)">
      <rect x="406.2774" y="362.8115" clip-path="url(#clipPath2)" width="307.6328" rx="4" ry="4" height="38.377" stroke="none"/>
    </g>
    <g text-rendering="geometricPrecision" stroke-miterlimit="1.45" shape-rendering="geometricPrecision" transform="matrix(1,0,0,1,-135,-171)" stroke-linecap="butt">
      <rect x="406.2774" y="362.8115" clip-path="url(#clipPath2)" fill="none" width="307.6328" rx="4" ry="4" height="38.377"/>
      <text x="418.2774" font-size="20px" y="389.7686" clip-path="url(#clipPath2)" font-family="'Roboto Condensed'" stroke="none" xml:space="preserve">https://embeddings.cs.upb.de:8443</text>
    </g>
    <g fill="rgb(200,226,138)" text-rendering="geometricPrecision" shape-rendering="geometricPrecision" transform="matrix(1,0,0,1,-135,-171)" stroke="rgb(200,226,138)">
      <rect x="406.2774" y="425.8115" clip-path="url(#clipPath2)" width="307.6328" rx="4" ry="4" height="38.377" stroke="none"/>
    </g>
    <g text-rendering="geometricPrecision" stroke-miterlimit="1.45" shape-rendering="geometricPrecision" transform="matrix(1,0,0,1,-135,-171)" stroke-linecap="butt">
      <rect x="406.2774" y="425.8115" clip-path="url(#clipPath2)" fill="none" width="307.6328" rx="4" ry="4" height="38.377"/>
      <text x="423.2139" font-size="20px" y="452.7686" clip-path="url(#clipPath2)" font-family="'Roboto Condensed'" stroke="none" xml:space="preserve">https://embeddings.cs.upb.de:443</text>
    </g>
    <g fill="rgb(200,226,138)" text-rendering="geometricPrecision" shape-rendering="geometricPrecision" transform="matrix(1,0,0,1,-135,-171)" stroke="rgb(200,226,138)">
      <rect x="137.5997" y="425.8115" clip-path="url(#clipPath2)" width="238.6777" rx="4" ry="4" height="38.377" stroke="none"/>
    </g>
    <g text-rendering="geometricPrecision" stroke-miterlimit="1.45" shape-rendering="geometricPrecision" transform="matrix(1,0,0,1,-135,-171)" stroke-linecap="butt">
      <rect x="137.5997" y="425.8115" clip-path="url(#clipPath2)" fill="none" width="238.6777" rx="4" ry="4" height="38.377"/>
      <text x="149.5997" font-size="20px" y="452.7686" clip-path="url(#clipPath2)" font-family="'Roboto Condensed'" stroke="none" xml:space="preserve">https://embeddings.cc:443</text>
    </g>
    <g fill="white" text-rendering="geometricPrecision" shape-rendering="geometricPrecision" transform="matrix(1,0,0,1,-135,-171)" stroke="white">
      <rect x="743.9102" width="146.2461" height="38.377" y="173.8115" clip-path="url(#clipPath2)" stroke="none"/>
    </g>
    <g font-size="20px" stroke-linecap="butt" transform="matrix(1,0,0,1,-135,-171)" text-rendering="geometricPrecision" font-family="'Roboto Condensed'" shape-rendering="geometricPrecision" stroke-miterlimit="1.45">
      <text x="755.9102" xml:space="preserve" y="200.7686" clip-path="url(#clipPath2)" stroke="none">use to add data</text>
    </g>
    <g fill="white" text-rendering="geometricPrecision" shape-rendering="geometricPrecision" transform="matrix(1,0,0,1,-135,-171)" stroke="white">
      <rect x="137.5997" width="264.4297" height="38.377" y="362.8115" clip-path="url(#clipPath2)" stroke="none"/>
    </g>
    <g font-size="20px" stroke-linecap="butt" transform="matrix(1,0,0,1,-135,-171)" text-rendering="geometricPrecision" font-family="'Roboto Condensed'" shape-rendering="geometricPrecision" stroke-miterlimit="1.45">
      <text x="149.5997" xml:space="preserve" y="389.7686" clip-path="url(#clipPath2)" stroke="none">website and public webservice</text>
    </g>
    <g fill="white" text-rendering="geometricPrecision" shape-rendering="geometricPrecision" transform="matrix(1,0,0,1,-135,-171)" stroke="white">
      <rect x="137.5997" width="213.4043" height="38.377" y="299.8115" clip-path="url(#clipPath2)" stroke="none"/>
    </g>
    <g font-size="20px" stroke-linecap="butt" transform="matrix(1,0,0,1,-135,-171)" text-rendering="geometricPrecision" font-family="'Roboto Condensed'" shape-rendering="geometricPrecision" stroke-miterlimit="1.45">
      <text x="149.5997" xml:space="preserve" y="326.7686" clip-path="url(#clipPath2)" stroke="none">for Let’s Encrypt certbot</text>
      <path fill="none" d="M410.1151 503.6846 L444.6544 503.6846 L440.8167 542.0615 L406.2774 542.0615 Z" fill-rule="evenodd" clip-path="url(#clipPath2)"/>
      <text x="450.6544" xml:space="preserve" y="530.6416" clip-path="url(#clipPath2)" stroke="none">HTTP</text>
      <rect x="285.7414" y="503.6846" clip-path="url(#clipPath2)" fill="none" width="38.377" rx="4" ry="4" height="38.377"/>
      <text x="330.1183" xml:space="preserve" y="530.6416" clip-path="url(#clipPath2)" stroke="none">HTTPS</text>
    </g>
    <g fill="rgb(200,226,138)" text-rendering="geometricPrecision" shape-rendering="geometricPrecision" transform="matrix(1,0,0,1,-135,-171)" stroke="rgb(200,226,138)">
      <rect x="510.8134" width="38.377" height="38.377" y="503.6846" clip-path="url(#clipPath2)" stroke="none"/>
      <rect stroke-linecap="butt" x="510.8134" y="503.6846" clip-path="url(#clipPath2)" fill="none" width="38.377" height="38.377" stroke-miterlimit="1.45"/>
    </g>
    <g font-size="20px" stroke-linecap="butt" transform="matrix(1,0,0,1,-135,-171)" text-rendering="geometricPrecision" font-family="'Roboto Condensed'" shape-rendering="geometricPrecision" stroke-miterlimit="1.45">
      <text x="555.1904" xml:space="preserve" y="530.6416" clip-path="url(#clipPath2)" stroke="none">Open port</text>
    </g>
    <g fill="rgb(169,201,232)" text-rendering="geometricPrecision" shape-rendering="geometricPrecision" transform="matrix(1,0,0,1,-135,-171)" stroke="rgb(169,201,232)">
      <rect x="649.5197" width="38.377" height="38.377" y="503.6846" clip-path="url(#clipPath2)" stroke="none"/>
      <rect stroke-linecap="butt" x="649.5197" y="503.6846" clip-path="url(#clipPath2)" fill="none" width="38.377" height="38.377" stroke-miterlimit="1.45"/>
    </g>
    <g font-size="20px" stroke-linecap="butt" transform="matrix(1,0,0,1,-135,-171)" text-rendering="geometricPrecision" font-family="'Roboto Condensed'" shape-rendering="geometricPrecision" stroke-miterlimit="1.45">
      <text x="693.8967" xml:space="preserve" y="530.6416" clip-path="url(#clipPath2)" stroke="none">UPB network</text>
    </g>
    <g fill="rgb(219,220,219)" text-rendering="geometricPrecision" shape-rendering="geometricPrecision" transform="matrix(1,0,0,1,-135,-171)" stroke="rgb(219,220,219)">
      <rect x="816.7334" y="503.6846" clip-path="url(#clipPath2)" width="38.377" rx="4" ry="4" height="38.377" stroke="none"/>
    </g>
    <g text-rendering="geometricPrecision" stroke-miterlimit="1.45" shape-rendering="geometricPrecision" transform="matrix(1,0,0,1,-135,-171)" stroke-linecap="butt">
      <rect x="816.7334" y="503.6846" clip-path="url(#clipPath2)" fill="none" width="38.377" rx="4" ry="4" height="38.377"/>
      <text x="861.1104" font-size="20px" y="530.6416" clip-path="url(#clipPath2)" font-family="'Roboto Condensed'" stroke="none" xml:space="preserve">Software component</text>
    </g>
    <g fill="rgb(219,220,219)" text-rendering="geometricPrecision" shape-rendering="geometricPrecision" transform="matrix(1,0,0,1,-135,-171)" stroke="rgb(219,220,219)">
      <rect x="543.1915" y="173.8115" clip-path="url(#clipPath2)" width="170.7188" rx="4" ry="4" height="38.377" stroke="none"/>
    </g>
    <g text-rendering="geometricPrecision" stroke-miterlimit="1.45" shape-rendering="geometricPrecision" transform="matrix(1,0,0,1,-135,-171)" stroke-linecap="butt">
      <rect x="543.1915" y="173.8115" clip-path="url(#clipPath2)" fill="none" width="170.7188" rx="4" ry="4" height="38.377"/>
      <text x="555.1915" font-size="20px" y="200.7686" clip-path="url(#clipPath2)" font-family="'Roboto Condensed'" stroke="none" xml:space="preserve">Python connection</text>
    </g>
    <g fill="rgb(219,220,219)" text-rendering="geometricPrecision" shape-rendering="geometricPrecision" transform="matrix(1,0,0,1,-135,-171)" stroke="rgb(219,220,219)">
      <rect x="406.2774" y="173.8115" clip-path="url(#clipPath2)" width="100.2598" rx="4" ry="4" height="38.377" stroke="none"/>
    </g>
    <g text-rendering="geometricPrecision" stroke-miterlimit="1.45" shape-rendering="geometricPrecision" transform="matrix(1,0,0,1,-135,-171)" stroke-linecap="butt">
      <rect x="406.2774" y="173.8115" clip-path="url(#clipPath2)" fill="none" width="100.2598" rx="4" ry="4" height="38.377"/>
      <text x="418.2774" font-size="20px" y="200.7686" clip-path="url(#clipPath2)" font-family="'Roboto Condensed'" stroke="none" xml:space="preserve">Examples</text>
    </g>
  </g>
</svg>
